<?xml version="1.0" encoding="iso-8859-1"?>
<!-- Generator: Adobe Illustrator 19.1.1, SVG Export Plug-In . SVG Version: 6.00 Build 0)  -->
<svg xmlns="http://www.w3.org/2000/svg" xmlns:xlink="http://www.w3.org/1999/xlink" version="1.1" id="Layer_1" x="0px" y="0px" viewBox="0 0 48 48" style="enable-background:new 0 0 48 48;" xml:space="preserve">
<g>
	<path style="fill:#FFF9C4;" d="M24,44c-8.823,0-16-6.939-16-15.468c0-4.46,1.868-10.571,4.76-15.567C16.105,7.184,20.097,4,24,4   s7.895,3.184,11.24,8.964C38.132,17.961,40,24.072,40,28.532C40,37.061,32.823,44,24,44z"/>
	<path style="fill:#F4E88C;" d="M24,5c3.531,0,7.216,3.006,10.374,8.465C37.184,18.321,39,24.235,39,28.532   C39,36.51,32.271,43,24,43c-8.271,0-15-6.49-15-14.468c0-4.297,1.816-10.211,4.625-15.067C16.784,8.006,20.469,5,24,5 M24,3   c-4.275,0-8.575,3.361-12.106,9.463C8.921,17.602,7,23.909,7,28.532C7,37.612,14.626,45,24,45c9.374,0,17-7.388,17-16.468   c0-4.623-1.921-10.93-4.894-16.068C32.575,6.361,28.275,3,24,3L24,3z"/>
</g>
<path style="fill:#F4E88C;" d="M36.106,12.463C32.575,6.361,28.275,3,24,3v42c9.374,0,17-7.388,17-16.468  C41,23.909,39.079,17.602,36.106,12.463z"/>
<g>
	<path style="fill:#81C784;" d="M14.526,36.676c1.473,1.52,3.096,2.265,2.233,3.01c-0.863,0.745-2.757,0.116-4.23-1.404   c-1.473-1.521-1.968-3.358-1.104-4.103C12.287,33.435,13.053,35.155,14.526,36.676z"/>
</g>
<g>
	<path style="fill:#4CAF50;" d="M34.474,36.676c-1.473,1.52-3.096,2.265-2.234,3.01c0.863,0.745,2.757,0.116,4.23-1.404   c1.473-1.521,1.968-3.358,1.104-4.103C36.713,33.435,35.947,35.155,34.474,36.676z"/>
</g>
<g>
	<path style="fill:#81C784;" d="M33.821,33.061c-2.173,4.501-6.609,6.969-9.91,5.511c-3.3-1.458-1.767-4.108,0.406-8.609   c2.172-4.501,4.16-9.148,7.461-7.69C35.078,23.73,35.993,28.561,33.821,33.061z"/>
</g>
<g>
	<path style="fill:#4CAF50;" d="M31.778,22.273c-3.3-1.458-5.289,3.189-7.461,7.69c-0.103,0.213-0.203,0.419-0.302,0.623v8.027   c3.289,1.362,7.657-1.097,9.806-5.552C35.993,28.561,35.078,23.73,31.778,22.273z"/>
</g>
<g>
	<circle style="fill:#7BC67B;" cx="14" cy="16" r="1"/>
</g>
<g>
	<circle style="fill:#7BC67B;" cx="18" cy="10" r="1"/>
</g>
<g>
	<circle style="fill:#81C784;" cx="16" cy="22" r="1"/>
</g>
<g>
	<circle style="fill:#4CAF50;" cx="26" cy="42" r="1"/>
</g>
<g>
	<circle style="fill:#81C784;" cx="22" cy="41" r="1"/>
</g>
<g>
	<circle style="fill:#4CAF50;" cx="31" cy="13" r="1"/>
</g>
<g>
	<circle style="fill:#4CAF50;" cx="35" cy="18" r="1"/>
</g>
<g>
	<circle style="fill:#81C784;" cx="18" cy="33" r="1"/>
</g>
<g>
	<path style="fill:#81C784;" d="M25.738,16.001c0,2.761,1.222,4.999-1.61,4.999S19,18.762,19,16.001S21.295,11,24.128,11   C26.96,11,25.738,13.24,25.738,16.001z"/>
</g>
<path style="fill:#4CAF50;" d="M24.128,11c-0.044,0-0.084,0.012-0.128,0.013v9.975C24.043,20.989,24.084,21,24.128,21  c2.832,0,1.61-2.239,1.61-5S26.96,11,24.128,11z"/>
</svg>
