<svg width="375.03125px" height="122px" xmlns="http://www.w3.org/2000/svg" viewBox="62.484375 14 375.03125 122" style="background: rgba(0, 0, 0, 0);" preserveAspectRatio="xMidYMid"><defs><filter id="editing-jagged" x="-100%" y="-100%" width="300%" height="300%"><feTurbulence result="turb" baseFrequency="0.1" numOctaves="1" seed="1"></feTurbulence><feDisplacementMap in="SourceGraphic" in2="turb" scale="10"></feDisplacementMap></filter></defs><g filter="url(#editing-jagged)"><g transform="translate(119.56498411297798, 98.68000030517578)"><path d="M26.11-42.69L26.11-42.69L26.11-42.69Q41.79-42.69 41.79-31.62L41.79-31.62L41.79-31.62Q41.79-25.54 37.89-21.89L37.89-21.89L37.89-21.89Q34.05-18.24 27.33-18.24L27.33-18.24L27.33-18.24Q24.19-18.24 21.76-20.03L21.76-20.03L21.76-20.03Q20.61-20.80 19.84-21.82L19.84-21.82L19.84-21.82Q24.51-21.82 26.98-24.67L26.98-24.67L26.98-24.67Q29.44-27.52 29.44-33.09L29.44-33.09L29.44-33.09Q29.44-38.66 23.94-38.66L23.94-38.66L22.40-38.66L22.40-38.66Q22.02-38.66 21.70-38.59L21.70-38.59L14.34 0L0.45 0L8.32-41.92L8.32-41.92Q15.17-42.56 19.14-42.62L19.14-42.62L19.14-42.62Q23.10-42.69 26.11-42.69ZM56.06 1.28L56.06 1.28L56.06 1.28Q41.98 1.28 41.98-11.97L41.98-11.97L41.98-11.97Q41.98-21.38 47.17-27.46L47.17-27.46L47.17-27.46Q52.67-33.92 62.21-33.92L62.21-33.92L62.21-33.92Q69.12-33.92 72.64-30.72L72.64-30.72L72.64-30.72Q76.16-27.52 76.16-20.80L76.16-20.80L76.16-20.80Q76.16-10.56 70.66-4.61L70.66-4.61L70.66-4.61Q65.28 1.28 56.06 1.28ZM57.73-26.56L57.73-26.56L57.73-26.56Q56.96-24.83 56.35-22.24L56.35-22.24L56.35-22.24Q55.74-19.65 54.98-15.55L54.98-15.55L54.98-15.55Q54.21-11.46 54.21-6.40L54.21-6.40L54.21-6.40Q54.21-4.74 54.75-3.65L54.75-3.65L54.75-3.65Q55.30-2.56 56.77-2.56L56.77-2.56L56.77-2.56Q58.24-2.56 59.17-3.26L59.17-3.26L59.17-3.26Q60.10-3.97 60.80-5.63L60.80-5.63L60.80-5.63Q62.08-8.58 63.10-14.05L63.10-14.05L63.10-14.05Q64.13-19.52 64.22-21.89L64.22-21.89L64.22-21.89Q64.32-24.26 64.32-26.02L64.32-26.02L64.32-26.02Q64.32-27.78 63.81-28.93L63.81-28.93L63.81-28.93Q63.30-30.08 61.86-30.08L61.86-30.08L61.86-30.08Q60.42-30.08 59.46-29.18L59.46-29.18L59.46-29.18Q58.50-28.29 57.73-26.56ZM96.45-30.34L96.45-30.34L96.45-30.34Q99.90-33.92 107.20-33.92L107.20-33.92L107.20-33.92Q111.23-33.92 113.44-31.78L113.44-31.78L113.44-31.78Q115.65-29.63 115.65-25.70L115.65-25.70L115.65-25.70Q115.65-21.76 113.44-18.98L113.44-18.98L113.44-18.98Q111.23-16.19 107.14-15.04L107.14-15.04L107.14-15.04Q107.46-13.76 107.90-12.42L107.90-12.42L108.80-9.86L108.80-9.86Q110.02-6.59 110.98-5.44L110.98-5.44L110.98-5.44Q111.94-4.29 113.22-3.90L113.22-3.90L113.22-3.90Q112.51-1.28 109.95 0.13L109.95 0.13L109.95 0.13Q107.90 1.28 105.09 1.28L105.09 1.28L105.09 1.28Q96.83 1.28 95.74-11.46L95.74-11.46L95.74-11.46Q95.55-13.25 95.55-15.04L95.55-15.04L95.55-15.04Q98.75-15.94 100.99-18.94L100.99-18.94L100.99-18.94Q103.23-21.95 103.23-25.47L103.23-25.47L103.23-25.47Q103.23-28.99 100.74-28.99L100.74-28.99L100.74-28.99Q98.94-28.99 97.54-27.01L97.54-27.01L97.54-27.01Q96.13-25.02 95.49-21.63L95.49-21.63L91.26 0L78.34 1.28L87.30-44.80L100.16-46.08L98.69-38.46L98.69-38.46Q97.73-33.09 96.45-30.34ZM144.51-10.82L144.51-10.82L144.51-10.82Q146.11-9.73 146.11-7.33L146.11-7.33L146.11-7.33Q146.11-4.93 144.90-3.39L144.90-3.39L144.90-3.39Q143.68-1.86 141.70-0.83L141.70-0.83L141.70-0.83Q137.60 1.28 133.18 1.28L133.18 1.28L133.18 1.28Q128.77 1.28 126.18 0.32L126.18 0.32L126.18 0.32Q123.58-0.64 121.86-2.43L121.86-2.43L121.86-2.43Q118.46-5.82 118.46-12.03L118.46-12.03L118.46-12.03Q118.46-21.70 123.71-27.58L123.71-27.58L123.71-27.58Q129.34-33.92 139.14-33.92L139.14-33.92L139.14-33.92Q145.22-33.92 148.22-31.36L148.22-31.36L148.22-31.36Q150.46-29.44 150.46-26.30L150.46-26.30L150.46-26.30Q150.46-15.04 131.01-15.04L131.01-15.04L131.01-15.04Q130.75-13.38 130.75-11.97L130.75-11.97L130.75-11.97Q130.75-9.02 132.06-7.90L132.06-7.90L132.06-7.90Q133.38-6.78 135.81-6.78L135.81-6.78L135.81-6.78Q138.24-6.78 140.83-7.90L140.83-7.90L140.83-7.90Q143.42-9.02 144.51-10.82ZM131.46-17.79L131.46-17.79L131.46-17.79Q136-17.79 138.62-20.61L138.62-20.61L138.62-20.61Q141.25-23.30 141.25-27.58L141.25-27.58L141.25-27.58Q141.25-29.06 140.70-29.86L140.70-29.86L140.70-29.86Q140.16-30.66 139.07-30.66L139.07-30.66L139.07-30.66Q137.98-30.66 137.06-30.24L137.06-30.24L137.06-30.24Q136.13-29.82 135.17-28.42L135.17-28.42L135.17-28.42Q132.80-25.22 131.46-17.79ZM172.80-33.92L172.80-33.92L172.80-33.92Q175.10-33.92 176.90-33.41L176.90-33.41L176.90-33.41Q176.96-33.66 177.09-34.37L177.09-34.37L177.41-36.35L177.41-36.35Q177.66-37.63 178.05-39.74L178.05-39.74L179.07-44.80L191.81-46.08L184.70-8.96L184.70-8.96Q184.64-8.58 184.64-7.94L184.64-7.94L184.64-6.91L184.64-6.91Q184.64-5.50 185.34-4.45L185.34-4.45L185.34-4.45Q186.05-3.39 187.20-3.39L187.20-3.39L187.20-3.39Q185.92-0.38 182.02 0.90L182.02 0.90L182.02 0.90Q180.67 1.28 178.78 1.28L178.78 1.28L178.78 1.28Q176.90 1.28 175.17 0.29L175.17 0.29L175.17 0.29Q173.44-0.70 172.93-2.37L172.93-2.37L172.93-2.37Q171.90-0.70 169.86 0.29L169.86 0.29L169.86 0.29Q167.81 1.28 164.83 1.28L164.83 1.28L164.83 1.28Q161.86 1.28 159.39 0.51L159.39 0.51L159.39 0.51Q156.93-0.26 155.39-1.92L155.39-1.92L155.39-1.92Q152.58-5.18 152.58-12.61L152.58-12.61L152.58-12.61Q152.58-22.21 158.21-28.03L158.21-28.03L158.21-28.03Q163.84-33.92 172.80-33.92ZM172.35-30.08L172.35-30.08L172.35-30.08Q169.98-30.08 168.70-27.52L168.70-27.52L168.70-27.52Q167.42-24.96 166.11-18.62L166.11-18.62L166.11-18.62Q164.80-12.29 164.80-6.59L164.80-6.59L164.80-6.59Q164.80-2.69 167.10-2.69L167.10-2.69L167.10-2.69Q169.15-2.69 170.59-4.74L170.59-4.74L170.59-4.74Q172.03-6.78 172.61-10.18L172.61-10.18L176.06-28.93L176.06-28.93Q174.72-30.08 172.35-30.08ZM218.56-10.82L218.56-10.82L218.56-10.82Q220.16-9.73 220.16-7.33L220.16-7.33L220.16-7.33Q220.16-4.93 218.94-3.39L218.94-3.39L218.94-3.39Q217.73-1.86 215.74-0.83L215.74-0.83L215.74-0.83Q211.65 1.28 207.23 1.28L207.23 1.28L207.23 1.28Q202.82 1.28 200.22 0.32L200.22 0.32L200.22 0.32Q197.63-0.64 195.90-2.43L195.90-2.43L195.90-2.43Q192.51-5.82 192.51-12.03L192.51-12.03L192.51-12.03Q192.51-21.70 197.76-27.58L197.76-27.58L197.76-27.58Q203.39-33.92 213.18-33.92L213.18-33.92L213.18-33.92Q219.26-33.92 222.27-31.36L222.27-31.36L222.27-31.36Q224.51-29.44 224.51-26.30L224.51-26.30L224.51-26.30Q224.51-15.04 205.06-15.04L205.06-15.04L205.06-15.04Q204.80-13.38 204.80-11.97L204.80-11.97L204.80-11.97Q204.80-9.02 206.11-7.90L206.11-7.90L206.11-7.90Q207.42-6.78 209.86-6.78L209.86-6.78L209.86-6.78Q212.29-6.78 214.88-7.90L214.88-7.90L214.88-7.90Q217.47-9.02 218.56-10.82ZM205.50-17.79L205.50-17.79L205.50-17.79Q210.05-17.79 212.67-20.61L212.67-20.61L212.67-20.61Q215.30-23.30 215.30-27.58L215.30-27.58L215.30-27.58Q215.30-29.06 214.75-29.86L214.75-29.86L214.75-29.86Q214.21-30.66 213.12-30.66L213.12-30.66L213.12-30.66Q212.03-30.66 211.10-30.24L211.10-30.24L211.10-30.24Q210.18-29.82 209.22-28.42L209.22-28.42L209.22-28.42Q206.85-25.22 205.50-17.79ZM235.20 0.19L235.20 0.19L235.20 0.19Q233.15 1.28 230.34 1.28L230.34 1.28L230.34 1.28Q227.52 1.28 225.98-0.16L225.98-0.16L225.98-0.16Q224.45-1.60 224.45-4.38L224.45-4.38L224.45-4.38Q224.45-7.17 226.40-9.89L226.40-9.89L226.40-9.89Q228.35-12.61 231.26-14.14L231.26-14.14L231.26-14.14Q234.18-15.68 236.22-16.58L236.22-16.58L232.19-25.86L232.19-25.86Q231.10-28.22 229.06-28.22L229.06-28.22L228.54-28.16L228.35-28.16L228.35-28.16Q228.74-30.40 231.36-32.13L231.36-32.13L231.36-32.13Q233.98-33.92 236.99-33.92L236.99-33.92L236.99-33.92Q241.86-33.92 244.10-29.06L244.10-29.06L244.61-28.03L247.36-21.25L247.36-21.25Q249.09-22.02 249.82-23.46L249.82-23.46L249.82-23.46Q250.56-24.90 250.56-27.74L250.56-27.74L250.56-27.74Q250.56-30.59 249.02-32.38L249.02-32.38L249.02-32.38Q251.46-33.92 254.66-33.92L254.66-33.92L254.66-33.92Q260.42-33.92 260.42-28.35L260.42-28.35L260.42-28.35Q260.42-22.27 252.80-18.75L252.80-18.75L248.96-16.96L252.42-8.06L252.42-8.06Q253.44-5.38 255.30-4.22L255.30-4.22L255.30-4.22Q256.06-3.71 256.96-3.65L256.96-3.65L256.96-3.65Q255.04-0.51 250.88 0.90L250.88 0.90L250.88 0.90Q249.60 1.28 247.87 1.28L247.87 1.28L247.87 1.28Q246.14 1.28 244.16 0.10L244.16 0.10L244.16 0.10Q242.18-1.09 241.47-2.94L241.47-2.94L237.95-12.10L237.95-12.10Q234.37-10.50 234.37-4.67L234.37-4.67L234.37-4.67Q234.37-1.98 235.20 0.19Z" fill="#444"></path></g></g><style>text {
  font-size: 64px;
  font-family: Arial Black;
  dominant-baseline: central;
  text-anchor: middle;
}</style></svg>